<?xml version="1.0" encoding="UTF-8"?>
<svg id="Layer_1" xmlns="http://www.w3.org/2000/svg" xmlns:xlink="http://www.w3.org/1999/xlink" viewBox="0 0 165 165">
	<defs>
		<style>.cls-1{fill:url(#linear-gradient-2);}.cls-2{fill:#fff;}.cls-3{fill:url(#linear-gradient-4);}.cls-4{fill:url(#linear-gradient-3);}.cls-5{fill:url(#linear-gradient-5);}.cls-6{fill:url(#linear-gradient-8);}.cls-7{fill:url(#linear-gradient-7);}.cls-8{fill:url(#linear-gradient-6);}.cls-9{fill:url(#linear-gradient);}</style>
		<linearGradient id="linear-gradient" x1="0" y1="82.5" x2="165" y2="82.5" gradientUnits="userSpaceOnUse">
			<stop offset="0" stop-color="#7cbb4b"/>
			<stop offset="1" stop-color="#419ad3"/>
		</linearGradient>
		<linearGradient id="linear-gradient-2" x1="39.11" y1="75.86" x2="91.92" y2="128.67" xlink:href="#linear-gradient"/>
		<linearGradient id="linear-gradient-3" x1="75.85" y1="39.12" x2="128.66" y2="91.93" xlink:href="#linear-gradient"/>
		<linearGradient id="linear-gradient-4" x1="57.55" y1="57.42" x2="110.36" y2="110.23" xlink:href="#linear-gradient"/>
		<linearGradient id="linear-gradient-5" x1="32.42" y1="82.55" x2="85.23" y2="135.36" xlink:href="#linear-gradient"/>
		<linearGradient id="linear-gradient-6" x1="82.55" y1="32.42" x2="135.36" y2="85.23" xlink:href="#linear-gradient"/>
		<linearGradient id="linear-gradient-7" x1="64.58" y1="50.39" x2="117.39" y2="103.2" xlink:href="#linear-gradient"/>
		<linearGradient id="linear-gradient-8" x1="50.38" y1="64.58" x2="103.19" y2="117.39" xlink:href="#linear-gradient"/>
	</defs>
	<path class="cls-9" d="M82.5,3c43.84,0,79.5,35.66,79.5,79.5s-35.66,79.5-79.5,79.5S3,126.34,3,82.5,38.66,3,82.5,3M82.5,0C36.94,0,0,36.94,0,82.5s36.94,82.5,82.5,82.5,82.5-36.94,82.5-82.5S128.06,0,82.5,0h0Z">
		<animateTransform attributeType="xml" attributeName="transform" type="rotate" from="0 82.5 82.5" to="360 82.5 82.5" dur="3.0s" additive="sum" repeatCount="indefinite"/>
	</path>
	<circle class="cls-3" cx="82.5" cy="82.37" r="17"/>
	<circle class="cls-1" cx="82.49" cy="119.24" r="13"/>
	<circle class="cls-4" cx="82.49" cy="45.76" r="13"/>
	<circle class="cls-5" cx="50.61" cy="100.74" r="13"/>
	<circle class="cls-8" cx="114.38" cy="64.26" r="13"/>
	<circle class="cls-7" cx="114.58" cy="100.39" r="13"/>
	<circle class="cls-6" cx="50.41" cy="64.61" r="13"/>
</svg>
