<?xml version="1.0" encoding="UTF-8"?><svg id="Layer_1" xmlns="http://www.w3.org/2000/svg" xmlns:xlink="http://www.w3.org/1999/xlink" viewBox="0 0 968 165"><defs><style>.cls-1{fill:url(#linear-gradient-2);}.cls-2{fill:#fff;}.cls-3{fill:url(#linear-gradient-4);}.cls-4{fill:url(#linear-gradient-3);}.cls-5{fill:url(#linear-gradient-5);}.cls-6{fill:url(#linear-gradient-8);}.cls-7{fill:url(#linear-gradient-7);}.cls-8{fill:url(#linear-gradient-6);}.cls-9{fill:url(#linear-gradient);}</style><linearGradient id="linear-gradient" x1=".4" y1="82.5" x2="165.4" y2="82.5" gradientUnits="userSpaceOnUse"><stop offset="0" stop-color="#7cbb4b"/><stop offset="1" stop-color="#419ad3"/></linearGradient><linearGradient id="linear-gradient-2" x1="39.51" y1="75.86" x2="92.32" y2="128.67" xlink:href="#linear-gradient"/><linearGradient id="linear-gradient-3" x1="76.25" y1="39.12" x2="129.06" y2="91.93" xlink:href="#linear-gradient"/><linearGradient id="linear-gradient-4" x1="57.95" y1="57.42" x2="110.76" y2="110.23" xlink:href="#linear-gradient"/><linearGradient id="linear-gradient-5" x1="32.81" y1="82.55" x2="85.62" y2="135.36" xlink:href="#linear-gradient"/><linearGradient id="linear-gradient-6" x1="82.94" y1="32.42" x2="135.75" y2="85.23" xlink:href="#linear-gradient"/><linearGradient id="linear-gradient-7" x1="64.98" y1="50.39" x2="117.79" y2="103.2" xlink:href="#linear-gradient"/><linearGradient id="linear-gradient-8" x1="50.78" y1="64.58" x2="103.59" y2="117.39" xlink:href="#linear-gradient"/></defs><circle class="cls-2" cx="82.83" cy="82.09" r="80"/><path class="cls-9" d="M82.9,3c43.84,0,79.5,35.66,79.5,79.5s-35.66,79.5-79.5,79.5S3.4,126.34,3.4,82.5,39.06,3,82.9,3M82.9,0C37.33,0,.4,36.94.4,82.5s36.94,82.5,82.5,82.5,82.5-36.94,82.5-82.5S128.46,0,82.9,0h0Z"/><circle class="cls-1" cx="82.89" cy="119.24" r="13"/><circle class="cls-4" cx="82.89" cy="45.76" r="13"/><circle class="cls-3" cx="82.9" cy="82.37" r="17"/><circle class="cls-5" cx="51.01" cy="100.74" r="13"/><circle class="cls-8" cx="114.78" cy="64.26" r="13"/><circle class="cls-7" cx="114.98" cy="100.39" r="13"/><circle class="cls-6" cx="50.81" cy="64.61" r="13"/><path d="M319.77,54.16c-2.81-3.02-6.23-5.23-10.26-6.63-4.04-1.4-8.61-2.11-13.74-2.11h-26v75.78h26c5.12,0,9.7-.7,13.74-2.11,4.03-1.4,7.46-3.61,10.26-6.63,2.81-3.02,4.93-6.93,6.37-11.74,1.44-4.81,2.16-10.61,2.16-17.42s-.72-12.61-2.16-17.42c-1.44-4.81-3.56-8.72-6.37-11.74ZM309.46,95.74c-.7,3.23-1.72,5.75-3.05,7.58-1.33,1.83-2.95,3.07-4.84,3.74-1.9.67-4.04,1-6.42,1h-8.53v-49.47h8.53c2.38,0,4.53.33,6.42,1,1.89.67,3.51,1.89,4.84,3.68,1.33,1.79,2.35,4.3,3.05,7.53.7,3.23,1.05,7.4,1.05,12.53s-.35,9.19-1.05,12.42Z"/><path d="M397.56,45.95c-.77-.14-1.67-.26-2.68-.37-1.02-.11-2.19-.16-3.53-.16-1.4,0-2.6.05-3.58.16-.98.11-1.79.23-2.42.37-.77.21-1.37.39-1.79.53l-13.26,41.79c-.77,2.53-1.4,4.83-1.89,6.89-.49,2.07-.91,3.84-1.26,5.32-.35,1.75-.67,3.33-.95,4.74h-.42c-.28-1.4-.6-2.98-.95-4.74-.35-1.47-.75-3.24-1.21-5.32-.46-2.07-1.07-4.33-1.84-6.79l-13.16-41.89c-.56-.14-1.23-.32-2-.53-.7-.14-1.53-.26-2.47-.37-.95-.11-2.09-.16-3.42-.16-1.4,0-2.68.07-3.84.21-1.16.14-2.12.28-2.89.42-.91.21-1.72.42-2.42.63l23.26,73.68c.84.14,1.82.28,2.95.42.98.14,2.12.25,3.42.32,1.3.07,2.79.11,4.47.11s3.07-.03,4.37-.11c1.3-.07,2.44-.17,3.42-.32,1.12-.14,2.1-.28,2.95-.42l23.37-73.89c-.63-.14-1.37-.32-2.21-.53Z"/><path d="M438.4,45.95c-.91-.14-2.02-.26-3.32-.37-1.3-.11-2.83-.16-4.58-.16s-3.18.05-4.47.16c-1.3.11-2.41.23-3.32.37-1.05.14-2,.28-2.84.42l-24,73.89c.56.21,1.23.39,2,.53.7.14,1.53.25,2.47.32.95.07,2.05.11,3.32.11s2.4-.03,3.42-.11c1.02-.07,1.88-.17,2.58-.32.77-.14,1.51-.32,2.21-.53l4.95-15.37h26.42l4.95,15.37c.56.21,1.23.39,2,.53.7.14,1.54.25,2.53.32.98.07,2.17.11,3.58.11s2.75-.03,3.84-.11c1.09-.07,2.02-.17,2.79-.32.84-.14,1.58-.32,2.21-.53l-24-73.89c-.77-.14-1.68-.28-2.74-.42ZM420.71,92.58l6.21-19.05s.02-.07.03-.1l3.07-9.43,9.32,28.58h-18.63Z"/><path d="M528.55,45.58c-.95-.11-2.02-.16-3.21-.16s-2.26.05-3.21.16c-.95.11-1.74.23-2.37.37-.77.14-1.44.28-2,.42v50.71l-23.47-50.71c-.7-.14-1.54-.28-2.53-.42-.84-.14-1.91-.26-3.21-.37-1.3-.11-2.86-.16-4.68-.16s-3.4.05-4.74.16c-1.33.11-2.46.23-3.37.37-1.05.14-1.93.28-2.63.42v73.89c.49.21,1.09.39,1.79.53.56.14,1.3.25,2.21.32.91.07,2,.11,3.26.11s2.35-.03,3.26-.11c.91-.07,1.68-.17,2.32-.32.77-.14,1.4-.32,1.9-.53v-50.68l5.51,11.85c.06.14.11.28.17.41l17.89,38.42c.77.21,1.68.39,2.74.53.91.14,2.03.25,3.37.32,1.33.07,2.84.11,4.53.11,1.82,0,3.4-.03,4.74-.11,1.33-.07,2.42-.17,3.26-.32.98-.14,1.82-.32,2.53-.53V46.37c-.49-.14-1.09-.28-1.79-.42-.56-.14-1.32-.26-2.26-.37Z"/><path d="M592.7,106.47c-1.26.49-2.6.88-4,1.16-1.19.35-2.58.63-4.16.84-1.58.21-3.28.32-5.11.32-2.67,0-5.09-.39-7.26-1.16-2.18-.77-4.04-2.11-5.58-4-1.54-1.89-2.72-4.47-3.52-7.74-.81-3.26-1.21-7.42-1.21-12.47s.4-9.23,1.21-12.53c.81-3.3,1.98-5.91,3.52-7.84,1.54-1.93,3.4-3.3,5.58-4.1,2.17-.81,4.59-1.21,7.26-1.21,1.61,0,3.17.11,4.68.32,1.51.21,2.82.46,3.95.74,1.26.28,2.49.63,3.68,1.05,1.54-1.47,2.77-3.17,3.68-5.11.91-1.93,1.3-4.09,1.16-6.47-1.41-.7-3.05-1.37-4.95-2-1.62-.56-3.63-1.05-6.05-1.47-2.42-.42-5.21-.63-8.37-.63-10.81,0-19.03,3.32-24.68,9.95-5.65,6.63-8.47,16.37-8.47,29.21s2.82,22.58,8.47,29.21c5.65,6.63,13.88,9.95,24.68,9.95,3.37,0,6.32-.19,8.84-.58,2.53-.39,4.67-.86,6.42-1.42,1.96-.63,3.68-1.33,5.16-2.1,0-2.25-.42-4.44-1.26-6.58-.84-2.14-2.07-3.91-3.68-5.32Z"/><path d="M654.17,108.37h-30.31v-19.05h24c.35-.98.61-1.98.79-3,.17-1.02.26-2.19.26-3.53,0-1.26-.11-2.38-.32-3.37-.21-.98-.46-1.93-.74-2.84h-24v-18.31h29.26c.7-1.96,1.05-4.21,1.05-6.74,0-1.19-.11-2.32-.32-3.37-.21-1.05-.46-1.96-.74-2.74h-46.1v75.78h47.16c.35-.98.61-2.02.79-3.1.17-1.09.26-2.23.26-3.42s-.09-2.33-.26-3.42c-.18-1.09-.44-2.05-.79-2.89Z"/><path d="M715.74,54.16c-2.81-3.02-6.23-5.23-10.26-6.63-4.04-1.4-8.61-2.11-13.74-2.11h-26v75.78h26c5.12,0,9.7-.7,13.74-2.11,4.03-1.4,7.45-3.61,10.26-6.63,2.81-3.02,4.93-6.93,6.37-11.74,1.44-4.81,2.16-10.61,2.16-17.42s-.72-12.61-2.16-17.42c-1.44-4.81-3.56-8.72-6.37-11.74ZM705.43,95.74c-.7,3.23-1.72,5.75-3.05,7.58-1.33,1.83-2.95,3.07-4.84,3.74-1.89.67-4.04,1-6.42,1h-8.53v-49.47h8.53c2.38,0,4.53.33,6.42,1,1.9.67,3.51,1.89,4.84,3.68,1.33,1.79,2.35,4.3,3.05,7.53.7,3.23,1.05,7.4,1.05,12.53s-.35,9.19-1.05,12.42Z"/><path d="M808.95,45.58c-1.02-.11-2.16-.16-3.42-.16-1.33,0-2.49.05-3.47.16-.98.11-1.86.23-2.63.37-.84.14-1.62.28-2.32.42v29.16h-23.68v-29.16c-.7-.14-1.47-.28-2.32-.42-.77-.14-1.67-.26-2.68-.37-1.02-.11-2.19-.16-3.52-.16s-2.49.05-3.47.16c-.98.11-1.86.23-2.63.37-.84.14-1.58.28-2.21.42v73.89c.63.21,1.33.39,2.11.53.7.14,1.58.25,2.63.32,1.05.07,2.28.11,3.68.11,1.26,0,2.4-.03,3.42-.11,1.02-.07,1.91-.17,2.68-.32.84-.14,1.61-.32,2.32-.53v-31.05h23.68v31.05c.56.21,1.26.39,2.11.53.7.14,1.6.25,2.68.32,1.09.07,2.33.11,3.74.11,1.26,0,2.4-.03,3.42-.11,1.02-.07,1.91-.17,2.68-.32.84-.14,1.58-.32,2.21-.53V46.37c-.7-.14-1.47-.28-2.32-.42-.77-.14-1.67-.26-2.68-.37Z"/><path d="M878.73,81.69c2.28-3.68,3.42-8.02,3.42-13,0-3.44-.54-6.59-1.63-9.47-1.09-2.88-2.68-5.33-4.79-7.37-2.11-2.03-4.7-3.61-7.79-4.74-3.09-1.12-6.63-1.68-10.63-1.68h-28.95v74.84c.56.21,1.26.39,2.1.53.7.14,1.6.25,2.68.32,1.09.07,2.33.11,3.74.11,1.26,0,2.4-.03,3.42-.11,1.02-.07,1.91-.17,2.68-.32.84-.14,1.58-.32,2.21-.53v-28.42h6.53l15.58,28.42c.7.21,1.51.39,2.42.53.77.14,1.74.25,2.9.32,1.16.07,2.47.11,3.95.11s2.89-.03,4.05-.11c1.16-.07,2.16-.17,3-.32.91-.14,1.75-.32,2.53-.53l-17.16-30.52c4.21-1.68,7.46-4.37,9.74-8.05ZM862.15,76.16c-1.61,1.75-4.04,2.63-7.26,2.63h-9.68v-20.31h9.68c3.23,0,5.65.88,7.26,2.63,1.61,1.76,2.42,4.28,2.42,7.58s-.81,5.72-2.42,7.47Z"/><path d="M966.2,46.11c-.74-.11-1.61-.21-2.63-.32-1.02-.11-2.12-.19-3.31-.26-1.19-.07-2.35-.11-3.47-.11-2.32,0-4.37.11-6.16.32-1.79.21-3.14.42-4.05.63-1.97,4.63-3.95,9.26-5.95,13.89-2,4.63-3.91,9.23-5.74,13.79-.91,2.32-1.65,4.47-2.21,6.47-.56,2-1.02,3.84-1.37,5.53h-.53c-.63-2.67-1.6-5.77-2.89-9.32-1.3-3.54-2.75-7.21-4.37-11l-8.32-19.37c-.84-.14-1.79-.28-2.84-.42-.91-.14-1.98-.26-3.21-.37-1.23-.11-2.54-.16-3.95-.16-2.11,0-4.12.12-6.05.37-1.93.25-3.35.44-4.26.58v73.89c.56.21,1.23.39,2,.53.63.14,1.4.25,2.32.32.91.07,1.96.11,3.16.11s2.24-.03,3.16-.11c.91-.07,1.68-.17,2.32-.32.77-.14,1.44-.32,2-.53v-51.71c.09.25.17.5.26.77.67,1.89,1.42,4,2.26,6.31.84,2.32,1.77,4.72,2.79,7.21,1.02,2.49,2.02,4.89,3,7.21,1.05,2.6,2.14,5.18,3.26,7.74,1.12,2.56,2.24,5.14,3.37,7.74.35.14.81.28,1.37.42.91.21,2.31.32,4.21.32s3.37-.11,4.42-.32c.63-.14,1.16-.28,1.58-.42l6.84-16.1c.91-2.17,1.84-4.46,2.79-6.84.95-2.38,1.84-4.72,2.68-7,.84-2.28,1.58-4.37,2.21-6.26.27-.82.52-1.56.74-2.23v53.17c.63.21,1.33.39,2.11.53.7.14,1.56.25,2.58.32,1.02.07,2.19.11,3.52.11,1.26,0,2.38-.03,3.37-.11.98-.07,1.82-.17,2.53-.32.77-.14,1.47-.32,2.1-.53V46.37c-.35-.07-.89-.16-1.63-.26Z"/><path d="M234.94,45.95c-.91-.14-2.02-.26-3.32-.37-1.3-.11-2.83-.16-4.58-.16s-3.18.05-4.47.16c-1.3.11-2.41.23-3.32.37-1.05.14-2,.28-2.84.42l-24,73.89c.56.21,1.23.39,2,.53.7.14,1.53.25,2.47.32.95.07,2.05.11,3.32.11s2.4-.03,3.42-.11c1.02-.07,1.88-.17,2.58-.32.77-.14,1.51-.32,2.21-.53l4.95-15.37h26.42l4.95,15.37c.56.21,1.23.39,2,.53.7.14,1.54.25,2.53.32.98.07,2.17.11,3.58.11s2.75-.03,3.84-.11c1.09-.07,2.02-.17,2.79-.32.84-.14,1.58-.32,2.21-.53l-24-73.89c-.77-.14-1.68-.28-2.74-.42ZM217.26,92.58h0v-.03s0,.03,0,.03ZM217.27,92.58l9.3-28.53,9.3,28.53h-18.6ZM235.88,92.58h0s0,0,0,0h0Z"/></svg>