<?xml version="1.0" encoding="UTF-8"?><svg id="Layer_2" xmlns="http://www.w3.org/2000/svg" xmlns:xlink="http://www.w3.org/1999/xlink" viewBox="0 0 866.1 616.69"><defs><style>.cls-1{clip-path:url(#clippath-1);}.cls-2{fill:#683d1d;}.cls-2,.cls-3,.cls-4,.cls-5,.cls-6{stroke-width:0px;}.cls-7,.cls-3{fill:#f2b168;}.cls-4{fill:#c12900;}.cls-5{fill:#ce9c5f;}.cls-6{fill:#e67c2a;}</style><clipPath id="clippath-1"><path class="cls-3" d="M497.78,85.02c13.72,25.94-28.42,48.49-27.24,113.93.65,36.04,13.88,54.37.63,70.59-11.79,14.43-37.46,18.52-57.22,10.68-2.15-.85-19.67-8.11-28.23-26.21-6.21-13.13-2.18-20.28-4.83-37.21-3.73-23.86-14.85-29.56-21.94-48.06-9.8-25.58-7.3-63.62,13.29-86.44,33.63-37.28,109.83-26.95,125.53,2.72Z"/></clipPath></defs><g id="Layer_2-2"><path class="cls-3" d="M214.92,375.1c-1.53,4.83-2.96,10.3-4.09,16.34-.8,4.27-1.34,8.32-1.7,12.09-2.96-9.22-7.34-23.55-11.83-41.36-6.73-26.68-6.92-34.25-11.38-45.51-5.25-13.25-16.24-31.21-42.14-48.54,0,0-45.4-33.11-54.95-32.44-9.55.67-11.05,20.5,18.32,34.1l17.86,17.21-39.5-7.01c-21.43-4.29-32.59-9.07-38.92-12.93-2.49-1.52-9.87-6.33-19.03-5.35-2.18.23-3.93.74-5.06,1.12-.55-.29-11.42-5.94-18.83-.56-.95.69-3.39,2.46-3.65,5.06-.46,4.52,5.84,9.99,16.26,12.81,0,0-5.8,11.54,5.51,15.27,11.3,3.73,22.23,18.81,22.23,18.81,0,0-7.15,5.21-1.12,8.5,48.97,26.73,50.79,29.43,66.8,33.6,9.68,2.52,23.35,5.48,40.14,7.14-.8,8.62-1.63,21.02-1.55,35.95.28,51.02,11.03,79.3,13.94,86.59,10.08,25.22,19.73,32.64,26.61,36.19,10.31,5.33,19.79,4.78,21.86,4.62,15.41-1.16,25.7-12.19,32.31-19.37,27.47-29.83,39.27-79.71,42.41-94.16,1.08-4.25.9-7.72.17-10.56-4.36-16.96-32.87-27.73-70.67-27.6Z"/><path class="cls-3" d="M631.6,368.29c4.75,8.05,9.49,16.11,14.24,24.16,26.06-39.14,42.07-65.64,49.67-82.45,2.52-5.57,8.9-20.63,24.23-31.28,3.77-2.62,7.13-4.31,9.25-5.29,31.51-19.45,44.12-23.29,47.14-19.82,1.16,1.33.75,3.57.44,5.29-2.19,12.01-17.97,17.32-20.27,18.06-3.08,3.52-6.17,7.05-9.25,10.57,5.05-1.23,10.65-2.36,16.74-3.23,6.45-.92,12.46-1.41,17.92-1.62,8.75-5.69,44.79-28.68,54.92-23.2.82.44,3.12,1.69,3.67,3.97,1.3,5.42-8.57,11.59-9.55,12.19,5.75-3.42,25.85-15.06,30.25-10.13.66.73.79,1.64.88,2.35,1.11,8.32-13.01,16.33-14.51,17.17,1.15-.56,13.12-6.29,17.48-1.7.08.08.87.93,1.13,2,1.69,6.81-18.8,17.71-22.75,19.78,1.19.24,3.44.83,3.81,2.25.48,1.82-2.43,4.02-3.52,4.85-13.27,10.01-77.39,33.48-86.03,36.76-1.27.48-4.78,1.83-9.68,3.42-9.38,3.03-17.38,4.82-23.02,5.9-16.34,35.75-32.48,64.39-45.15,85.2-22.91,37.62-41.22,65.33-60.8,63.88-9.09-.68-15.05-7.47-24.28-18.31-10.49-12.33-27.83-37-34.72-77.62.48-12.1,4.71-19.92,7.41-23.92,11.94-17.69,37.46-25.3,64.33-19.23Z"/><path class="cls-4" d="M398.1,227.21c-13.75-6.87-62.75-29.28-105.27-8.41-36.7,18.01-51.37,59.75-68.28,107.9-9.12,25.98-13.75,48.57-16.27,64.57,5.77,3.89,12.06,7.76,18.89,11.49,21.51,11.73,42.08,18.6,59.49,22.72,3.74-9.6,7.48-19.21,11.23-28.81-.59,10.68-1.15,21.36-1.69,32.03-3.14,62.61-5.39,125.28-6.74,187.99h290.84c-4.1-21.79-7.86-44.42-11.17-67.86-6.38-45.18-10.35-88.14-12.55-128.47,1.86,6.71,3.73,13.43,5.59,20.14,10.14-2.81,23.51-7.76,37.51-16.86,24.19-15.72,37.67-35.63,44.26-47.21-15.88-37.94-31.75-75.87-47.63-113.81-4.39-6.69-17.5-24.71-42.15-33.72-34.64-12.66-64.86,2.4-69.97,5.06-28.7-2.25-57.39-4.51-86.09-6.76Z"/><path class="cls-5" d="M497.78,85.02c14,26.23-28.62,49.37-26.96,115.62.88,34.93,13.34,52.98.35,68.91-11.78,14.45-37.47,18.52-57.22,10.68-2.15-.85-19.67-8.11-28.23-26.21-6.21-13.13-2.18-20.28-4.83-37.21-3.73-23.86-14.85-29.56-21.94-48.06-9.8-25.58-7.3-63.62,13.29-86.44,33.61-37.25,109.66-27,125.53,2.72Z"/><path class="cls-7" d="M497.78,85.02c13.72,25.94-28.42,48.49-27.24,113.93.65,36.04,13.88,54.37.63,70.59-11.79,14.43-37.46,18.52-57.22,10.68-2.15-.85-19.67-8.11-28.23-26.21-6.21-13.13-2.18-20.28-4.83-37.21-3.73-23.86-14.85-29.56-21.94-48.06-9.8-25.58-7.3-63.62,13.29-86.44,33.63-37.28,109.83-26.95,125.53,2.72Z"/><g class="cls-1"><path class="cls-6" d="M376.18,202.77s30.96,78.94,92.68,67.24c61.72-11.71,15.42-34.97,15.42-34.97l-108.1-32.26Z"/></g><path class="cls-3" d="M497.78,85.02c7.29,16.89,16.84,45.04,16.51,80.44-.24,25.79-.64,68.04-24.65,83.03-25.38,15.84-73.97-.78-113.46-45.72-3.38-1.54-7.87-4-12.4-7.91-16.54-14.26-24.15-39.54-18.11-60.21,6.01-20.55,23.82-30.71,37.83-38.42,44.72-24.62,92.99-16.35,114.28-11.2Z"/><path class="cls-2" d="M505.55,70.34c-6.47,19.39-26.96,27.93-38.72,32.49-36.77,14.24-73.52,4.12-91.87-2.59-.91,9.17-1.19,20.83.71,34.1,2.69,18.85,8.74,33.74,13.85,43.83,1.08,4.25,1.11,6.67.07,7.25-1.45.83-4.99-1.94-10.61-8.31-14.3-29.39-21.21-35.51-24.83-34.5-5.07,1.41-6.36,17.55-2.4,29.94,5.07,15.9,18.24,24.03,22.85,26.6,1.9,1.96,5.09,5.8,6.91,11.56,1.45,4.59,1.45,8.59,1.25,11.12-9.41-6.04-37.45-25.79-50-63.62-8.86-26.7-5.86-49.94-3.54-61.46-.2-12.21,1.18-40,20.59-62.82,36.22-42.58,114.75-43.82,143.9-10.72,9.49,10.78,17.66,29.65,11.83,47.14Z"/></g></svg>